<svg xmlns="http://www.w3.org/2000/svg" viewBox="0 0 600 320">
  <!-- 背景 -->
  <rect x="0" y="0" width="600" height="320" fill="#f8f8f8" rx="5" ry="5" />
  
  <!-- Flowテーブル -->
  <rect x="50" y="30" width="220" height="190" fill="#E6F3FF" stroke="#4472C4" stroke-width="2" rx="5" ry="5" />
  <rect x="50" y="30" width="220" height="40" fill="#4472C4" stroke="#4472C4" stroke-width="2" rx="5" ry="5" />
  <text x="160" y="55" font-family="Arial" font-size="16" font-weight="bold" fill="white" text-anchor="middle">Flow</text>
  
  <!-- Flowテーブルの列 -->
  <line x1="50" y1="85" x2="270" y2="85" stroke="#4472C4" stroke-width="1" />
  <text x="70" y="110" font-family="Arial" font-size="14">id: UUID</text>
  <text x="70" y="140" font-family="Arial" font-size="14">name: String</text>
  <text x="70" y="170" font-family="Arial" font-size="14">user_id: UUID</text>
  <text x="70" y="200" font-family="Arial" font-size="14" font-weight="bold" fill="#00AA4F">last_interacted_chat_id: UUID</text>
  
  <!-- 新しい列のハイライト -->
  <rect x="65" y="185" width="190" height="25" fill="#90EE90" stroke="none" fill-opacity="0.3" rx="3" ry="3" />
  
  <!-- Chatテーブル -->
  <rect x="330" y="30" width="220" height="190" fill="#E6F3FF" stroke="#4472C4" stroke-width="2" rx="5" ry="5" />
  <rect x="330" y="30" width="220" height="40" fill="#4472C4" stroke="#4472C4" stroke-width="2" rx="5" ry="5" />
  <text x="440" y="55" font-family="Arial" font-size="16" font-weight="bold" fill="white" text-anchor="middle">Chat</text>
  
  <!-- Chatテーブルの列 -->
  <line x1="330" y1="85" x2="550" y2="85" stroke="#4472C4" stroke-width="1" />
  <text x="350" y="110" font-family="Arial" font-size="14">id: UUID</text>
  <text x="350" y="140" font-family="Arial" font-size="14">name: String</text>
  <text x="350" y="170" font-family="Arial" font-size="14">flow_id: UUID</text>
  <text x="350" y="200" font-family="Arial" font-size="14">user_id: UUID</text>
  
  <!-- テーブル間の関係 -->
  <line x1="270" y1="195" x2="330" y2="170" stroke="#00AA4F" stroke-width="2" marker-end="url(#arrowhead)" />
  <line x1="330" y1="170" x2="270" y2="140" stroke="#4472C4" stroke-width="2" stroke-dasharray="5,5" marker-end="url(#arrowhead)" />
  
  <!-- arrowhead marker definition -->
  <defs>
    <marker id="arrowhead" markerWidth="10" markerHeight="7" refX="9" refY="3.5" orient="auto">
      <polygon points="0 0, 10 3.5, 0 7" fill="#00AA4F" />
    </marker>
  </defs>
  
  <!-- 注釈 -->
  <text x="300" y="250" font-family="Arial" font-size="13" font-style="italic">foreign_keys=[Chat.flow_id]で</text>
  <text x="300" y="270" font-family="Arial" font-size="13" font-style="italic">関係性を明確化</text>
  <text x="300" y="300" font-family="Arial" font-size="13" fill="#00AA4F" font-weight="bold">ON DELETE SET NULL 設定済み</text>
</svg>